<?xml version="1.0" encoding="UTF-8"?>
<svg id="Layer_2" data-name="Layer 2" xmlns="http://www.w3.org/2000/svg" viewBox="0 0 1637.51 292.84">
  <g id="LOGO">
    <g>
      <g>
        <path d="M180.11,15.72c13.16,7.41,22.98,17.04,29.47,28.89,6.48,11.85,9.72,24.45,9.72,37.8,0,14.12-3.19,26.24-9.56,36.36-6.38,10.12-14.9,17.96-25.57,23.51-10.67,5.55-22.46,8.82-35.37,9.81l-3.04-38.16c15.27,1.2,28.93,5.4,41,12.6,12.06,7.2,21.55,17.09,28.44,29.67,6.89,12.59,10.34,27.28,10.34,44.08s-3.8,32.61-11.41,45.96c-7.61,13.35-18.07,23.69-31.39,31.02-13.32,7.33-28.3,11-44.94,11H21.01c-6.84,0-12.05-1.79-15.64-5.37-3.58-3.59-5.37-8.8-5.37-15.64V25.61c0-6.84,1.79-12.05,5.37-15.63,3.59-3.58,8.8-5.38,15.64-5.38h110.88c18.99,0,35.06,3.71,48.22,11.12ZM141.29,111.29c4.08-1.75,7.21-4.36,9.4-7.84,2.19-3.47,3.28-7.76,3.28-12.84s-1.09-9.36-3.28-12.8-5.32-6.06-9.4-7.84c-4.08-1.78-8.88-2.67-14.4-2.67H54.82l10.18-12.97v184.18l-10.18-12.97h76.5c5.91,0,10.98-1.01,15.22-3.04,4.24-2.02,7.49-4.95,9.77-8.78,2.27-3.83,3.41-8.45,3.41-13.87s-1.14-10.02-3.41-13.83c-2.27-3.8-5.53-6.72-9.77-8.74-4.24-2.02-9.31-3.04-15.22-3.04H21.01v-60.32h105.88c5.53,0,10.33-.88,14.4-2.63Z"/>
        <path d="M267.58,279.14c-15.81-9.14-28.06-22.13-36.73-38.99-8.67-16.85-13.01-36.47-13.01-58.84s4.42-41.29,13.26-57.54c8.83-16.25,20.93-28.69,36.27-37.3,15.35-8.62,32.57-12.93,51.67-12.93s35.87,4.23,50.64,12.68c14.77,8.45,26.29,20.42,34.55,35.91,8.26,15.48,12.39,33.51,12.39,54.09v4.1c0,8.43-1.77,14.61-5.29,18.55-3.53,3.94-8.77,5.91-15.72,5.91h-139.36v-48.59h103.42l-4.76,19.62c0-10.01-1.33-18.47-3.98-25.36-2.66-6.9-6.64-12.15-11.94-15.76-5.31-3.61-11.93-5.42-19.86-5.42s-14.91,1.93-20.6,5.79c-5.69,3.86-10.04,9.71-13.05,17.57-3.01,7.85-4.51,17.61-4.51,29.26,0,12.8,1.77,23.2,5.29,31.19s8.33,13.78,14.4,17.36c6.08,3.58,13.1,5.37,21.09,5.37,5.36,0,9.88-.66,13.54-1.97s6.62-3.05,8.87-5.21,4.19-4.77,5.83-7.84c.55-1.09.96-1.89,1.23-2.38,1.1-2.52,2.34-4.6,3.73-6.24,1.4-1.64,3.21-2.94,5.46-3.9,2.24-.96,5.06-1.44,8.45-1.44h20.44c4.65,0,8.54.7,11.66,2.09,3.12,1.39,5.47,3.56,7.06,6.48,1.59,2.93,2.3,6.64,2.13,11.12-.66,10.78-4.42,21.26-11.28,31.44-6.87,10.18-16.79,18.54-29.75,25.07-12.97,6.54-28.48,9.81-46.54,9.81-20.85,0-39.18-4.57-54.99-13.7Z"/>
        <path d="M561.28,84.33c12.39,7.2,21.95,17.41,28.69,30.66,6.73,13.24,10.1,28.62,10.1,46.12v106.12c0,6.84-1.79,12.05-5.38,15.64-3.59,3.58-8.8,5.37-15.64,5.37h-21.01c-6.84,0-12.05-1.79-15.64-5.37-3.58-3.59-5.37-8.8-5.37-15.64v-100.79c0-10.45-2.44-18.42-7.31-23.92-4.87-5.5-12.15-8.25-21.83-8.25-6.29,0-11.68,1.3-16.17,3.9-4.49,2.6-7.91,6.4-10.26,11.41-2.35,5.01-3.53,10.98-3.53,17.93v99.72c0,6.84-1.79,12.05-5.38,15.64-3.58,3.58-8.79,5.37-15.63,5.37h-21.01c-6.84,0-12.05-1.79-15.64-5.37s-5.38-8.8-5.38-15.64V25.61c0-6.84,1.79-12.05,5.38-15.63,3.58-3.58,8.79-5.38,15.64-5.38h21.01c6.84,0,12.05,1.79,15.63,5.38,3.58,3.58,5.38,8.8,5.38,15.63v107.27h-34.88c2.02-10.83,6.2-20.74,12.52-29.71,6.32-8.97,14.78-16.16,25.4-21.55,10.61-5.39,23.01-8.08,37.18-8.08,16.36,0,30.74,3.6,43.13,10.79Z"/>
        <path d="M744.17,82.94c13.02,6.27,22.61,14.81,28.77,25.65,6.16,10.83,9.23,23.31,9.23,37.43v73.7c0,7.5.19,15.42.58,23.76s.93,15.8,1.64,22.36c.44,4.22-.12,8.03-1.68,11.45s-3.91,6.1-7.06,8.04c-3.14,1.94-6.88,2.91-11.2,2.91h-19.37c-3.67,0-6.95-.75-9.85-2.26s-5.27-3.62-7.1-6.36c-1.83-2.74-2.94-5.88-3.32-9.44-.44-3.5-.82-6.73-1.15-9.68-.6-5.2-1.23-11.27-1.89-18.22l30.61-.33c-1.53,7.28-4.79,14.69-9.77,22.24-4.98,7.55-12.51,14.05-22.61,19.49-10.1,5.45-22.78,8.17-38.04,8.17s-29.55-3.04-42.19-9.11c-12.64-6.08-22.58-14.64-29.84-25.69-7.25-11.05-10.87-23.8-10.87-38.25,0-12.97,2.98-23.84,8.95-32.63,5.96-8.78,14.34-15.42,25.12-19.9,10.78-4.49,23.53-7,38.25-7.55l44.89-1.72c.98,0,1.71-.11,2.17-.33.46-.22.79-.57.98-1.06.19-.5.29-1.18.29-2.05h32.58c-.44,11.11-1.96,20.23-4.56,27.37-2.6,7.14-6.95,12.75-13.05,16.83-6.1,4.08-14.62,6.5-25.57,7.26l-27.33,1.97c-4.49.27-8.12.96-10.91,2.05-2.79,1.09-4.86,2.6-6.2,4.51-1.34,1.91-2.01,4.32-2.01,7.22,0,3.56,1.08,6.7,3.24,9.44,2.16,2.74,5.14,4.84,8.95,6.32,3.8,1.48,8.14,2.22,13.01,2.22,6.51,0,12.12-1.14,16.82-3.41,4.7-2.27,8.34-5.83,10.92-10.67,2.57-4.84,3.86-11.07,3.86-18.67v-54.5c0-7.33-1.96-12.76-5.87-16.29-3.91-3.53-10.14-5.29-18.67-5.29-5.53,0-10.05.68-13.58,2.05-3.53,1.37-6.21,3.31-8.04,5.83-1.83,2.52-3,5.55-3.49,9.11-.44,2.96-1.35,5.5-2.75,7.63-1.4,2.13-3.49,3.8-6.28,5.01-2.79,1.2-6.32,1.81-10.59,1.81h-22.08c-4.16,0-7.82-.85-11-2.54-3.17-1.69-5.66-4.13-7.47-7.31-1.81-3.17-2.74-6.87-2.79-11.08-.27-11.76,2.75-22.71,9.07-32.83,6.32-10.12,16.15-18.33,29.51-24.62,13.35-6.29,29.9-9.44,49.65-9.44s36.06,3.13,49.08,9.4Z"/>
        <path d="M804.38,9.97c3.58-3.58,8.79-5.38,15.64-5.38h21.01c6.84,0,12.05,1.79,15.63,5.38,3.58,3.58,5.38,8.8,5.38,15.63v241.63c0,6.84-1.79,12.05-5.38,15.64-3.58,3.58-8.79,5.37-15.63,5.37h-21.01c-6.84,0-12.05-1.79-15.64-5.37s-5.38-8.8-5.38-15.64V25.61c0-6.84,1.79-12.05,5.38-15.63Z"/>
        <path d="M891.46,24.41c3.62-6.45,8.77-11.37,15.45-14.75,6.68-3.38,14.5-5.06,23.46-5.06h61.35c6.55,0,11.54,1.78,14.98,5.35,3.43,3.57,5.15,8.75,5.15,15.56v16.99c0,6.81-1.72,12-5.15,15.56-3.43,3.57-8.43,5.35-14.98,5.35h-49.01l3.54-3.51v206.12c0,6.81-1.72,12-5.15,15.56-3.43,3.57-8.43,5.35-14.98,5.35h-19.96c-6.55,0-11.54-1.78-14.98-5.35-3.43-3.57-5.15-8.76-5.15-15.56V47.57c0-8.99,1.81-16.71,5.42-23.16ZM906.16,86.06h82.41c6.55,0,11.54,1.78,14.98,5.35,3.43,3.57,5.15,8.76,5.15,15.56v19.28c0,6.81-1.72,12-5.15,15.56-3.43,3.57-8.43,5.35-14.98,5.35h-82.41v-61.11Z"/>
      </g>
      <g>
        <path d="M1141.13,191.69c5.96,12.45,14.25,21.86,24.87,28.23,10.61,6.37,22.87,9.56,36.77,9.56,11.6,0,21.35-1.78,29.26-5.33,7.9-3.56,13.99-8.29,18.26-14.2,4.27-5.91,7.03-12.67,8.29-20.27.55-3.39,1.65-6.36,3.32-8.91,1.67-2.54,3.99-4.53,6.98-5.95s6.66-2.13,11.04-2.13h23.47c4.54,0,8.42.79,11.66,2.38,3.23,1.59,5.63,3.95,7.22,7.1,1.59,3.14,2.27,6.96,2.05,11.45-.93,18.11-6.39,34.73-16.37,49.86-9.99,15.13-24,27.14-42.02,36.03-18.03,8.89-39.08,13.34-63.16,13.34-26.48,0-50.04-5.94-70.67-17.81-20.63-11.87-36.72-28.86-48.26-50.97-11.55-22.1-17.32-47.98-17.32-77.64s5.77-55.54,17.32-77.64c11.54-22.11,27.63-39.09,48.26-50.97,20.63-11.87,44.18-17.81,70.67-17.81,24.08,0,45.13,4.45,63.16,13.34,18.03,8.89,32.03,20.9,42.02,36.03,9.98,15.13,15.44,31.75,16.37,49.86.22,4.49-.47,8.3-2.05,11.45-1.59,3.15-3.99,5.51-7.22,7.1-3.23,1.59-7.11,2.38-11.66,2.38h-23.47c-4.38,0-8.06-.71-11.04-2.13s-5.31-3.41-6.98-5.95c-1.67-2.55-2.78-5.52-3.32-8.91-1.26-7.6-4.02-14.36-8.29-20.27-4.27-5.91-10.36-10.64-18.26-14.2-7.91-3.56-17.66-5.34-29.26-5.34-13.9,0-26.16,3.19-36.77,9.56-10.62,6.37-18.9,15.79-24.87,28.23-5.96,12.45-8.95,27.54-8.95,45.26s2.98,32.82,8.95,45.27Z"/>
        <path d="M1369.68,279.34c-15.68-9-28.03-21.79-37.06-38.37-9.03-16.58-13.54-35.84-13.54-57.78s4.51-41.2,13.54-57.78c9.03-16.58,21.38-29.37,37.06-38.37,15.68-9,33.2-13.5,52.57-13.5s36.89,4.5,52.57,13.5c15.68,9,28.03,21.79,37.06,38.37,9.03,16.58,13.54,35.84,13.54,57.78s-4.51,41.2-13.54,57.78c-9.03,16.58-21.38,29.37-37.06,38.37s-33.2,13.5-52.57,13.5-36.89-4.5-52.57-13.5ZM1442.12,227.1c5.96-3.55,10.72-9.03,14.28-16.41,3.56-7.39,5.33-16.55,5.33-27.5s-1.78-20.11-5.33-27.5c-3.56-7.39-8.32-12.86-14.28-16.41-5.97-3.56-12.59-5.33-19.86-5.33s-13.9,1.78-19.86,5.33-10.72,9.03-14.28,16.41-5.33,16.55-5.33,27.5,1.78,20.11,5.33,27.5,8.32,12.86,14.28,16.41c5.96,3.56,12.59,5.33,19.86,5.33s13.9-1.78,19.86-5.33Z"/>
      </g>
      <rect x="1563.81" y="76.2" width="72.74" height="72.74" rx="24.25" ry="24.25"/>
      <rect x="1564.76" y="219.18" width="72.74" height="72.74" rx="24.25" ry="24.25"/>
    </g>
  </g>
</svg>